# xmcd CD database file
#
# Track frame offsets:
#	150
#	19251
#	42926
#	65645
#	91887
#	118116
#	146279
#	169006
#	199770
#	225230
#	253347
#	286190
#
# Disc length: 4159 seconds
#
# Revision: 0
# Processed by: cddbd v1.5.2PL0 Copyright (c) Steve Scherf et al.
# Submitted via: CDex 1.70beta2
#
DISCID=a3103d0c
DTITLE=Bill King - Rhythm Express
DYEAR=2008
DGENRE=Jazz
TTITLE0=Bill King - Rhythm Express
TTITLE1=Bill King - Hymn #1
TTITLE2=Bill King - Sundown Comin'
TTITLE3=Bill King - Big Country (For Cape Breton Island)
TTITLE4=Bill King - Beat Street
TTITLE5=Bill King - In the Blues Garden
TTITLE6=Bill King - Only the Righteous
TTITLE7=Bill King - Archie Speaks!
TTITLE8=Bill King - The Wake
TTITLE9=Bill King - Kobe
TTITLE10=Bill King - My Summer Rose
TTITLE11=Bill King - 427 Rhythm Street
EXTD=YEAR: 2008
EXTT0=
EXTT1=
EXTT2=
EXTT3=
EXTT4=
EXTT5=
EXTT6=
EXTT7=
EXTT8=
EXTT9=
EXTT10=
EXTT11=
PLAYORDER=
